# xmcd generated by iCDc
#
# Track frame offsets:
#     183
#     16408
#     39108
#     53735
#     72360
#     86223
#     106400
#     129838
#     145065
#
# Disc length: 2197 seconds
#
# Revision: 0
# Processed by: cddbd v1.4PL0 Copyright (c) Steve Scherf et al.
# Submitted via: iCDc 2.0 http://homepage.mac.com/andersw/icdc/
#
DISCID=70089309
DTITLE=Blues Project - Blues Project
DYEAR=1972
DGENRE=Blues
TTITLE0=Back Door Man
TTITLE1=Danville Dame
TTITLE2=Railroad Boy
TTITLE3=Rainbow
TTITLE4=Easy Lady
TTITLE5=Plain And Fancy
TTITLE6=Little Rain
TTITLE7=Crazy Girl
TTITLE8=I'm Ready
EXTD=
EXTT0=
EXTT1=
EXTT2=
EXTT3=
EXTT4=
EXTT5=
EXTT6=
EXTT7=
EXTT8=
PLAYORDER=
